<svg xmlns="http://www.w3.org/2000/svg" viewBox="0 0 1200 420" width="1200" height="420" role="img" aria-label="OpenBot: free AI teammates">
<style>
  .bob { animation: bob 3.2s ease-in-out infinite; transform-box: fill-box; transform-origin: 50% 100%; }
  .blink { animation: blink 4.2s infinite; transform-box: fill-box; transform-origin: center; }
  .look { animation: look 7s ease-in-out infinite; }
  .shadow { animation: shadow 3.2s ease-in-out infinite; transform-box: fill-box; transform-origin: center; }
  .dot { animation: typing 1.2s infinite ease-in-out; transform-box: fill-box; transform-origin: center; }
  .d2 { animation-delay: .15s; } .d3 { animation-delay: .3s; }
  .fade { animation: fade 1.2s ease-out both; }
  .t2 { animation-delay: .25s; }
  @keyframes bob { 0%,100% { transform: translateY(0) scale(1,1); } 45% { transform: translateY(-14px) scale(.98,1.02); } 70% { transform: translateY(0) scale(1.03,.97); } }
  @keyframes blink { 0%,92%,100% { transform: scaleY(1); } 95% { transform: scaleY(.08); } }
  @keyframes look { 0%,35% { transform: translate(4px,-3px); } 45%,70% { transform: translate(-4px,1px); } 80%,100% { transform: translate(4px,-3px); } }
  @keyframes shadow { 0%,100% { transform: scaleX(1); opacity:.45; } 45% { transform: scaleX(.75); opacity:.25; } }
  @keyframes typing { 0%,100% { transform: scale(.7); opacity:.4; } 40% { transform: scale(1.1); opacity:1; } }
  @keyframes fade { from { opacity:0; transform: translateY(10px); } to { opacity:1; transform:none; } }
</style>
<defs><radialGradient id="glow" cx="50%" cy="0%" r="80%"><stop offset="0" stop-color="#8b6cff" stop-opacity=".28"/><stop offset="1" stop-color="#8b6cff" stop-opacity="0"/></radialGradient></defs>
<rect width="1200" height="420" rx="28" fill="#0a0a0a"/>
<rect width="1200" height="420" rx="28" fill="url(#glow)"/>
<g class="fade"><text x="600" y="112" text-anchor="middle" font-family="-apple-system, BlinkMacSystemFont, Segoe UI, Helvetica, Arial, sans-serif" font-size="78" font-weight="700" fill="#f2f2f2" letter-spacing="-2">OpenBot</text></g>
<g class="fade t2"><text x="600" y="160" text-anchor="middle" font-family="-apple-system, BlinkMacSystemFont, Segoe UI, Helvetica, Arial, sans-serif" font-size="24" fill="#a1a1a1">Free AI teammates with their own computers, plus a video brain.</text></g>
<g transform="translate(150 300)"><g class="bob" style="animation-delay:-0.0s"><g transform="scale(1.15)"><circle cx="0" cy="4" r="38" fill="#ffffff"/><g class="look" style="animation-delay:-0.0s"><g class="blink" style="animation-delay:-0.0s"><rect x="-12.5" y="-9" width="7" height="18" rx="3.5" transform="rotate(18 -9 0)" fill="#141414"/><rect x="5.5" y="-9" width="7" height="18" rx="3.5" transform="rotate(-24 9 0)" fill="#141414"/></g></g></g></g><ellipse class="shadow" style="animation-delay:-0.0s" cx="0" cy="62" rx="30" ry="5" fill="#000" opacity=".45"/></g><g transform="translate(300 300)"><g class="bob" style="animation-delay:-0.5s"><g transform="scale(1.15)"><path d="M-6.9 -29.5c3.1-5.3 10.7-5.3 13.8 0l31.6 54.8c3.1 5.3-.8 12-6.9 12H-31.6c-6.1 0-10-6.7-6.9-12z" fill="#6cc4a6"/><g class="look" style="animation-delay:-1.0s"><g class="blink" style="animation-delay:-1.5s"><ellipse cx="-9" cy="12" rx="4.6" ry="6.4" fill="#141414"/><ellipse cx="9" cy="12" rx="4.6" ry="6.4" fill="#141414"/></g></g></g></g><ellipse class="shadow" style="animation-delay:-0.5s" cx="0" cy="62" rx="30" ry="5" fill="#000" opacity=".45"/></g><g transform="translate(450 300)"><g class="bob" style="animation-delay:-1.0s"><g transform="scale(1.15)"><rect x="-37" y="-33" width="74" height="74" rx="30" fill="#f2a65a"/><g class="look" style="animation-delay:-2.0s"><g class="blink" style="animation-delay:-3.0s"><path d="M-15 3 q6 -9 12 0 M3 3 q6 -9 12 0" fill="none" stroke="#141414" stroke-width="4.4" stroke-linecap="round"/></g></g></g></g><ellipse class="shadow" style="animation-delay:-1.0s" cx="0" cy="62" rx="30" ry="5" fill="#000" opacity=".45"/></g><g transform="translate(750 300)"><g class="bob" style="animation-delay:-1.5s"><g transform="scale(1.15)"><rect x="-28" y="-24" width="56" height="56" rx="16" transform="rotate(45 0 4)" fill="#8b6cff"/><g class="look" style="animation-delay:-3.0s"><g class="blink" style="animation-delay:-4.5s"><rect x="-15" y="-0.6000000000000001" width="12" height="5.2" rx="2.6" fill="#141414"/><rect x="3" y="-0.6000000000000001" width="12" height="5.2" rx="2.6" fill="#141414"/></g></g></g></g><ellipse class="shadow" style="animation-delay:-1.5s" cx="0" cy="62" rx="30" ry="5" fill="#000" opacity=".45"/></g><g transform="translate(900 300)"><g class="bob" style="animation-delay:-0.8s"><g transform="scale(1.15)"><path d="M2 -34c20 0 36 14 36 35 0 22-15 39-38 39-21 0-37-14-37-35 0-22 17-39 39-39z" fill="#4f8ff7"/><g class="look" style="animation-delay:-1.6s"><g class="blink" style="animation-delay:-2.4000000000000004s"><ellipse cx="-9" cy="0" rx="4.6" ry="6.4" fill="#141414"/><ellipse cx="9" cy="0" rx="4.6" ry="6.4" fill="#141414"/></g></g></g></g><ellipse class="shadow" style="animation-delay:-0.8s" cx="0" cy="62" rx="30" ry="5" fill="#000" opacity=".45"/></g><g transform="translate(1050 300)"><g class="bob" style="animation-delay:-0.3s"><g transform="scale(1.15)"><path d="M-6 -32.5a12 12 0 0 1 12 0l23.6 13.6a12 12 0 0 1 6 10.4v27.2a12 12 0 0 1-6 10.4L6 42.7a12 12 0 0 1-12 0L-29.6 29.1a12 12 0 0 1-6-10.4V-8.5a12 12 0 0 1 6-10.4z" fill="#e86aa6"/><g class="look" style="animation-delay:-0.6s"><g class="blink" style="animation-delay:-0.8999999999999999s"><path d="M-15 6 q6 -9 12 0 M3 6 q6 -9 12 0" fill="none" stroke="#141414" stroke-width="4.4" stroke-linecap="round"/></g></g></g></g><ellipse class="shadow" style="animation-delay:-0.3s" cx="0" cy="62" rx="30" ry="5" fill="#000" opacity=".45"/></g>
<g transform="translate(560 300)"><rect x="-10" y="-26" width="100" height="52" rx="26" fill="#262626"/><circle class="dot" cx="18" cy="0" r="7" fill="#6cc4a6"/><circle class="dot d2" cx="40" cy="0" r="7" fill="#6cc4a6"/><circle class="dot d3" cx="62" cy="0" r="7" fill="#6cc4a6"/></g>
</svg>